<svg width="100" height="100" viewBox="0 0 100 100" fill="none" xmlns="http://www.w3.org/2000/svg">
<circle cx="50" cy="50" r="50" fill="#A7A7A7"/>
<path d="M56.7674 52.1126C56.7674 55.9043 53.7375 58.9781 49.9999 58.9781C46.2623 58.9781 43.2324 55.9043 43.2324 52.1126C43.2324 48.3208 46.2623 45.247 49.9999 45.247C53.7375 45.247 56.7674 48.3208 56.7674 52.1126Z" fill="#F2F2F2"/>
<path fill-rule="evenodd" clip-rule="evenodd" d="M71.2963 64.6433C71.2963 68.4842 68.1413 69.4444 66.5638 69.4444H33.4362C31.8587 69.4444 28.7037 68.4842 28.7037 64.6433V39.1975C28.7037 37.7572 29.5556 34.8765 32.963 34.8765H39.5885C39.7462 34.8765 40.1564 34.7805 40.535 34.3964C40.6817 34.2476 41.0343 33.8538 41.4664 33.3713C42.1496 32.6084 43.0313 31.6239 43.6111 31.0357C43.7689 30.8756 44.179 30.5556 44.5576 30.5556H55.4424C55.821 30.5556 56.2311 30.8756 56.3889 31.0357C56.9687 31.6239 57.8504 32.6084 58.5336 33.3713C58.9656 33.8537 59.3184 34.2477 59.465 34.3964C59.8436 34.7805 60.2538 34.8765 60.4115 34.8765H67.037C70.4444 34.8765 71.2963 37.7572 71.2963 39.1975V64.6433ZM49.9999 63.3471C56.1159 63.3471 61.074 58.3172 61.074 52.1126C61.074 45.9079 56.1159 40.878 49.9999 40.878C43.8839 40.878 38.9258 45.9079 38.9258 52.1126C38.9258 58.3172 43.8839 63.3471 49.9999 63.3471ZM56.7674 52.1126C56.7674 55.9043 53.7375 58.9781 49.9999 58.9781C46.2623 58.9781 43.2324 55.9043 43.2324 52.1126C43.2324 48.3208 46.2623 45.247 49.9999 45.247C53.7375 45.247 56.7674 48.3208 56.7674 52.1126Z" fill="#F2F2F2"/>
</svg>
