<svg width="21" height="23" viewBox="0 0 21 23" fill="none" xmlns="http://www.w3.org/2000/svg">
<path d="M8.94546 21.0293C8.94546 21.5028 9.83378 22 10.3273 22C10.8208 22 11.7091 21.5028 11.7091 21.0293H8.94546Z" fill="#034AA6"/>
<path d="M9.34027 2.93159C9.653 2.90692 9.98174 2.89402 10.3273 2.89402C10.6728 2.89402 11.0016 2.90692 11.3143 2.93159V1.94701C11.3143 1.63134 11.1169 1 10.3273 1C9.53768 1 9.34027 1.63134 9.34027 1.94701V2.93159Z" fill="#034AA6"/>
<path d="M9.34027 2.93159C9.653 2.90692 9.98174 2.89402 10.3273 2.89402C10.6728 2.89402 11.0016 2.90692 11.3143 2.93159M9.34027 2.93159C4.29338 3.32963 3.41819 6.79259 3.41819 8.5761C3.41819 10.4701 3.41819 14.5423 3.41819 15.6787C3.41819 16.8151 1.49351 17.9041 1 18.3776H20C19.5065 17.9041 17.2364 16.8151 17.2364 15.6787C17.2364 14.5423 17.2364 10.4701 17.2364 8.5761C17.2364 6.79259 16.3612 3.32963 11.3143 2.93159M9.34027 2.93159V1.94701C9.34027 1.63134 9.53768 1 10.3273 1C11.1169 1 11.3143 1.63134 11.3143 1.94701V2.93159M8.94546 21.0293C8.94546 21.5028 9.83378 22 10.3273 22C10.8208 22 11.7091 21.5028 11.7091 21.0293H8.94546Z" stroke="#034AA6" stroke-width="1.5" stroke-linecap="round" stroke-linejoin="round"/>
</svg>
