<svg width="327" height="180" viewBox="0 0 327 180" fill="none" xmlns="http://www.w3.org/2000/svg">
<rect x="1" y="1" width="325" height="178" rx="4" fill="#E3E3E3" stroke="#539AF6" stroke-width="2"/>
<path d="M174.828 93.3801C174.828 99.4469 169.98 104.365 164 104.365C158.02 104.365 153.172 99.4469 153.172 93.3801C153.172 87.3133 158.02 82.3952 164 82.3952C169.98 82.3952 174.828 87.3133 174.828 93.3801Z" fill="#A7A7A7"/>
<path fill-rule="evenodd" clip-rule="evenodd" d="M198.074 113.429C198.074 119.575 193.026 121.111 190.502 121.111H137.498C134.974 121.111 129.926 119.575 129.926 113.429V72.7161C129.926 70.4116 131.289 65.8025 136.741 65.8025H147.342C147.594 65.8025 148.25 65.6489 148.856 65.0343C149.091 64.7962 149.655 64.1661 150.346 63.3941C151.439 62.1735 152.85 60.5982 153.778 59.6571C154.03 59.401 154.687 58.8889 155.292 58.8889H172.708C173.314 58.8889 173.97 59.401 174.222 59.6571C175.15 60.5982 176.561 62.1735 177.654 63.3941C178.345 64.1659 178.909 64.7963 179.144 65.0343C179.75 65.6489 180.406 65.8025 180.659 65.8025H191.259C196.711 65.8025 198.074 70.4116 198.074 72.7161V113.429ZM164 111.355C173.786 111.355 181.718 103.308 181.718 93.3801C181.718 83.4526 173.786 75.4048 164 75.4048C154.214 75.4048 146.281 83.4526 146.281 93.3801C146.281 103.308 154.214 111.355 164 111.355ZM174.828 93.3801C174.828 99.4469 169.98 104.365 164 104.365C158.02 104.365 153.172 99.4469 153.172 93.3801C153.172 87.3133 158.02 82.3952 164 82.3952C169.98 82.3952 174.828 87.3133 174.828 93.3801Z" fill="#A7A7A7"/>
</svg>
