<svg width="29" height="29" viewBox="0 0 29 29" fill="none" xmlns="http://www.w3.org/2000/svg">
<path d="M11.3151 22.77C9.6262 24.1 5.95369 25.1486 4.72221 25.3333C5.07406 24.4097 6.65005 22.0083 6.30555 19.7916L6.28719 19.7199C4.65577 17.964 3.66666 15.662 3.66666 13.1416C3.66666 7.63259 8.39254 3.16663 14.2222 3.16663C20.0519 3.16663 24.7778 7.63259 24.7778 13.1416C24.7778 18.6507 20.0519 23.1166 14.2222 23.1166C13.2162 23.1166 12.2416 22.996 11.3151 22.77Z" fill="#03178C"/>
<path d="M11.3151 22.77C9.6262 24.1 5.95369 25.1486 4.72221 25.3333C5.07406 24.4097 6.65005 22.0083 6.30555 19.7916L6.28719 19.7199C4.65577 17.964 3.66666 15.662 3.66666 13.1416C3.66666 7.63259 8.39254 3.16663 14.2222 3.16663C20.0519 3.16663 24.7778 7.63259 24.7778 13.1416C24.7778 18.6507 20.0519 23.1166 14.2222 23.1166M11.3151 22.77C12.2416 22.996 13.2162 23.1166 14.2222 23.1166M11.3151 22.77L11.3516 22.7433C12.2643 22.9865 13.2272 23.1166 14.2222 23.1166M10.1759 11.8066H18.6204M10.1759 15.8621H16.8611" stroke="#F2F2F2" stroke-width="1.5" stroke-linecap="round" stroke-linejoin="round"/>
</svg>
