<svg width="25" height="27" viewBox="0 0 25 27" fill="none" xmlns="http://www.w3.org/2000/svg">
<path d="M8.89327 2.40684C8.89327 2.40684 8.89327 0 11.3256 0H13.7578C16.1901 0 16.1901 2.40684 16.1901 2.40684V3.61026L18.9189 5.28032L19.9721 4.67861C19.9721 4.67861 22.0785 3.47519 23.2946 5.55959L24.5108 7.64398C25.7269 9.72834 23.6205 10.9318 23.6205 10.9318L22.5673 11.5335V14.6416L23.5233 15.3089C23.5233 15.3089 25.6297 16.5123 24.4136 18.5967L23.1975 20.6811C21.9813 22.7655 19.8749 21.562 19.8749 21.562L18.8217 20.9603L15.9957 22.4638V23.6672C15.9957 23.6672 15.9957 26.0741 13.5634 26.0741H11.1311C8.6989 26.0741 8.6989 23.6672 8.6989 23.6672V22.4638L5.96999 20.7937L4.91679 21.3954C4.91679 21.3954 2.81039 22.5988 1.59425 20.5144L0.378117 18.43C-0.838 16.3457 1.2684 15.1422 1.2684 15.1422L2.41881 14.441V11.367L1.36562 10.7653C1.36562 10.7653 -0.740783 9.56185 0.475358 7.47744L1.69149 5.39306C2.9076 3.3087 5.014 4.51212 5.014 4.51212L6.0672 5.11383L8.89327 3.61026V2.40684Z" fill="#034AA6"/>
<circle cx="12.4444" cy="12.6296" r="4" fill="#F2F2F2"/>
</svg>
