<svg width="25" height="25" viewBox="0 0 25 25" fill="none" xmlns="http://www.w3.org/2000/svg">
<path d="M9.35978 0.555664C11.6948 0.555664 13.9342 1.48325 15.5853 3.13436C17.2364 4.78548 18.164 7.02487 18.164 9.3599C18.164 11.5406 17.3649 13.5453 16.051 15.0894L16.4167 15.4551H17.4868L24.2592 22.2276L22.2275 24.2594L15.455 17.4869V16.4168L15.0893 16.0511C13.4917 17.4148 11.4602 18.164 9.35978 18.1641C7.02475 18.1641 4.78536 17.2365 3.13424 15.5854C1.48313 13.9343 0.555542 11.6949 0.555542 9.3599C0.555542 7.02487 1.48313 4.78548 3.13424 3.13436C4.78536 1.48325 7.02475 0.555664 9.35978 0.555664ZM9.35978 3.26466C5.97353 3.26466 3.26454 5.97365 3.26454 9.3599C3.26454 12.7461 5.97353 15.4551 9.35978 15.4551C12.746 15.4551 15.455 12.7461 15.455 9.3599C15.455 5.97365 12.746 3.26466 9.35978 3.26466Z" fill="#034AA6"/>
</svg>
