<svg width="17" height="19" viewBox="0 0 17 19" fill="none" xmlns="http://www.w3.org/2000/svg">
<path fill-rule="evenodd" clip-rule="evenodd" d="M2.97087 0C1.98058 0 0 0.594783 0 2.97391V16.0261C0 18.4052 1.98058 19 2.97087 19H14.0291C15.0194 19 17 18.4052 17 16.0261V6.68556C17 6.54979 17 6.44348 16.835 6.27826L11.2233 0.66087C11.2233 0.660868 10.5631 0 10.233 0H2.97087ZM14.7108 6.46501L10.7083 2.45837C10.2895 2.03911 9.57281 2.33574 9.57281 2.92835V6.935C9.57281 7.30227 9.87055 7.6 10.2378 7.6H14.2404C14.8327 7.6 15.1294 6.88404 14.7108 6.46501Z" fill="#539AF6"/>
</svg>
